<svg xmlns="http://www.w3.org/2000/svg" xmlns:xlink="http://www.w3.org/1999/xlink" width="412" height="303.9" viewBox="0 0 412 303.9">
  <defs>
    <linearGradient id="linear-gradient" x1="0.5" y1="1" x2="0.5" gradientUnits="objectBoundingBox">
      <stop offset="0" stop-color="gray" stop-opacity="0.251" />
      <stop offset="0.54" stop-color="gray" stop-opacity="0.122" />
      <stop offset="1" stop-color="gray" stop-opacity="0.102" />
    </linearGradient>
  </defs>
  <g id="Group_4" data-name="Group 4" transform="translate(0.009 -0.004)">
    <path id="Path_84" data-name="Path 84" d="M61.83,433.31c6.506,25.143,20.266,46.877,42.012,57.413,45.206,21.9,147.159,10.6,223.249-2.36,39.36-6.7,73.956-25.206,99.087-51.244Z" transform="translate(-57.401 -287.605)" fill="#6c63ff" opacity="0.1" />
    <path id="Path_85" data-name="Path 85" d="M478.4,71.645H436.652a3.28,3.28,0,1,1,0-6.528h7.221a3.28,3.28,0,1,1,0-6.528H438.72a3.281,3.281,0,1,1,0-6.528H460.51a62.445,62.445,0,0,0-17-4.24c-59.42-6.9-80.634-2.337-88.117,2.356a87.836,87.836,0,0,1-30.54,12.112c-36.66,6.843-105.218,15.075-167.357-2.622-30.884-8.813-53.839,6.06-67.6,30.922H485.653a53.722,53.722,0,0,0-4.9-19.738,3.809,3.809,0,0,1-2.348.794Z" transform="translate(-74.958 -44.29)" fill="#6c63ff" opacity="0.1" />
    <path id="Path_86" data-name="Path 86" d="M50.88,293.19A150.763,150.763,0,0,0,52.5,337.056l366.55,12.131a155.511,155.511,0,0,0,25.468-35.139Zm144.975,31.292h-7.217a3.281,3.281,0,1,1,0,6.528H146.888a3.28,3.28,0,1,1,0-6.528h7.221a3.28,3.28,0,1,1,0-6.528h-5.157a3.281,3.281,0,1,1,0-6.528H190.7a3.28,3.28,0,1,1,0,6.528h5.154a3.28,3.28,0,1,1,0,6.528Z" transform="translate(-49.99 -199.965)" fill="#6c63ff" opacity="0.1" />
    <path id="Path_87" data-name="Path 87" d="M462.288,168.5,62.1,177.3a132.773,132.773,0,0,0-9.584,37.39H455.277a142.056,142.056,0,0,0,5.813-23.832A102.019,102.019,0,0,0,462.288,168.5ZM133.772,197.358h-7.217a3.282,3.282,0,1,1,0,6.532H84.8a3.282,3.282,0,1,1,0-6.532h7.221a3.28,3.28,0,1,1,0-6.528H86.869a3.281,3.281,0,1,1,0-6.528h41.749a3.28,3.28,0,1,1,0,6.528h5.154a3.28,3.28,0,1,1,0,6.528Z" transform="translate(-51.578 -121.976)" fill="#6c63ff" opacity="0.1" />
    <ellipse id="Ellipse_8" data-name="Ellipse 8" cx="167.41" cy="15.401" rx="167.41" ry="15.401" transform="translate(36.736 261.743)" fill="#6c63ff" opacity="0.1" />
    <path id="Path_88" data-name="Path 88" d="M914.93,359.308a.564.564,0,0,1,0-.079v-.116h0a3.2,3.2,0,0,0-.476-1.2,9.471,9.471,0,0,0-3.468-3.281c-2.472-1.356-5.869-1.936-6.858-4.524a13.825,13.825,0,0,1-.461-2.513,7.6,7.6,0,0,0-5.015-5.7c-1.176-.393-2.446-.5-3.588-.989-2.554-1.086-3.9-3.764-5.045-6.24q-2.217-4.794-4.435-9.592a3.73,3.73,0,0,1-3.629-.408,7.529,7.529,0,0,1-2.348-2.9c-1.524-2.959-2.18-6.311-3.97-9.127s-5.367-5.041-8.528-3.817a14.562,14.562,0,0,1-1.91.79c-2.708.633-5.7-2.461-8.023-.959a2.622,2.622,0,0,0-.91,1,.452.452,0,0,1,0-.075,4.791,4.791,0,0,0-.494,1.955h0v.472c0,.539.034,1.086.041,1.633a7.27,7.27,0,0,1-.1,1.371v-.037a4.623,4.623,0,0,1-.195.749c-.6,1.618-2.273,2.678-3.056,4.2v-.075a3.942,3.942,0,0,0-.228.513,3.822,3.822,0,0,0-.214,1.24c-.067,2.858,2.963,5.547,3.315,8.614.251,2.172.749,2.869,2.6,4.1l.4.27c-.161,0-.326.022-.509.026a1.246,1.246,0,0,0-.214.022,2.285,2.285,0,0,0-1.925.337c-1.416,1.124-4.764.258-6.251,0s-6.581.438-7.292,3.262-1.933,8.652-1.933,8.652,0,3.7-.453,4.386a.222.222,0,0,0,0,.15c0,1.037.037,7.273-.966,8.88a3.628,3.628,0,0,0-.045,2.221c-1.056,1.36-2.049,2.948-1.873,3.989.322,2.131,4.644,8.832,10.839,5.243,0,0,3.524-6.446-.91-9.873l.191-.749c1.341,1.648,2.333,2.832,2.333,2.832s.052.139.135.375h-.135a17.6,17.6,0,0,1,1.041,4.9,5.992,5.992,0,0,1-.33,1.8h.116c-.034.127-.071.255-.116.375a3.266,3.266,0,0,1-1.165,1.577c-3.1,2.195-6.644,17.869-6.644,17.869s-7.026,25.337-8.431,26.779c-1.161,1.184,6.135,4.517,11.611,4.12a8.936,8.936,0,0,0,2.247-.427c.034.375.071.749.109,1.09.116,1.124.236,2.165.311,2.491.195.816.581,9.154.581,9.154a58.822,58.822,0,0,0-.6,9.184c0,.258.034.506.056.749l-.682.1c-1.034,2.322,3.225,21.7,3.805,23.326a15.512,15.512,0,0,1,.644,3.951,4.309,4.309,0,0,0-.064,2.131,5.185,5.185,0,0,1,.375,1.442,3.97,3.97,0,0,0,.131,2.067,3.912,3.912,0,0,1-.064,2.247s-.127,5.644-1.288,8.715a5.019,5.019,0,0,0,.805,4.974,3.053,3.053,0,0,0,.262.3s6.4.052,7.532,0h.146c.453-.064,1.614-5.142.58-7.588a9.231,9.231,0,0,1-.127-5.457v-4.45s1.161-1.071,0-3.371-.97-3-.97-3,1.292-3.7-.064-4.891.258-5.708.258-5.708l.457-15.056a5.927,5.927,0,0,0-.73-.187c-.026-.247-.052-.5-.079-.772-.266-2.727-.494-6.435.1-7.491s.876-10.277.97-16.686l5.9.225c.124,3,.255,5.73.337,6.079.195.816.584,9.154.584,9.154a58.624,58.624,0,0,0-.6,9.184c0,.258.034.506.056.749l-.682.1c-1.034,2.322,3.225,21.7,3.805,23.326a15.6,15.6,0,0,1,.648,3.951,4.339,4.339,0,0,0-.067,2.131,5.182,5.182,0,0,1,.375,1.442,3.97,3.97,0,0,0,.131,2.067,3.912,3.912,0,0,1-.064,2.247s-.127,5.644-1.288,8.715a5.019,5.019,0,0,0,.831,4.966,3.076,3.076,0,0,0,.262.3s6.4.052,7.532,0h.146c.453-.064,1.614-5.142.581-7.588a9.231,9.231,0,0,1-.127-5.457v-4.442s1.161-1.071,0-3.371-.97-3-.97-3,1.292-3.7-.064-4.891.258-5.708.258-5.708l.464-15.056a5.754,5.754,0,0,0-.749-.187c-.026-.247-.052-.5-.079-.772-.266-2.727-.494-6.435.1-7.491.476-.865.749-6.438.873-11.88,0-.375,0-.749.03-1.124a58.086,58.086,0,0,0,8.082-.906s-3.157-11.165-2.191-12.981c.416-.783-.183-4.951-1-9.442a6.562,6.562,0,0,0,4.038,1.461c1.412,2.715,5.708,8.963,8.127,9.925,2.839,1.124.708-8.839-.644-10.281a12.131,12.131,0,0,1-1.6-2.573c.037-.045.079-.082.116-.124s.067-10.6-.581-10.408-1.419-1.569-1.419-1.569l-2-17.554-.839-7.348h0c.7.517,1.532.846,2.247,1.36,1.948,1.427,2.584,3.933,3.438,6.15a10.1,10.1,0,0,0,3.315,4.779,5.009,5.009,0,0,0,5.618.288c1.5-1.09,1.94-3.056,2.27-4.85,2.719.955,6.019-1.6,5.667-4.39-.086-.689-.341-1.442.019-2.045.719-1.191,3-.5,3.745-1.674a1.251,1.251,0,0,0,.187-.678A.468.468,0,0,0,914.93,359.308Zm-36.371,9.656c-.041.67.88,6.056,1.629,10.318a13.079,13.079,0,0,0-4.273-7.435,3.365,3.365,0,0,0-.03-.375h.03s-.1-1.071-.116-2.6a28.585,28.585,0,0,1,.3-4.037v-.034h-.049a2.126,2.126,0,0,1,.049-.341,12.173,12.173,0,0,1,.91-3.273,9.073,9.073,0,0,1,.693-1.176C878.1,363.638,878.6,368.286,878.559,368.964Zm2.015,12.479c.33,1.839.566,3.131.566,3.131l1.989,13.656v.064c-1.071-5.764-2.438-11.839-2.438-11.839a23.6,23.6,0,0,0-.116-5.011Z" transform="translate(-540.16 -209.372)" fill="url(#linear-gradient)" />
    <path id="Path_89" data-name="Path 89" d="M888.466,332.338c-.375-3.461-4.12-6.446-3-9.738.611-1.794,2.521-2.891,3.165-4.674a10.918,10.918,0,0,0,.24-3.719,3.9,3.9,0,0,1,1.337-3.341c2.247-1.5,5.139,1.584,7.76.955a13.729,13.729,0,0,0,1.846-.787c3.06-1.217,6.521,1,8.24,3.8s2.363,6.142,3.839,9.086a7.453,7.453,0,0,0,2.27,2.888,3.528,3.528,0,0,0,3.513.408l4.288,9.551c1.124,2.461,2.412,5.127,4.869,6.21,1.1.483,2.33.592,3.468.985a7.491,7.491,0,0,1,4.869,5.674,13.981,13.981,0,0,0,.446,2.506c.955,2.577,4.24,3.154,6.633,4.494a9.278,9.278,0,0,1,3.371,3.262,2.161,2.161,0,0,1,.3,2.135c-.723,1.169-2.921.479-3.618,1.667a3.111,3.111,0,0,0,0,2.037,4.331,4.331,0,0,1-5.483,4.367c-.318,1.786-.749,3.745-2.195,4.828a4.718,4.718,0,0,1-5.427-.285,10.039,10.039,0,0,1-3.2-4.757c-.828-2.21-1.446-4.7-3.33-6.124-.682-.509-1.5-.839-2.165-1.352a9.134,9.134,0,0,1-2.783-4.869,50.956,50.956,0,0,0-2.247-6.79,10.221,10.221,0,0,0-4.768-5.15c-2.041-.918-4.393-.858-6.5-1.6-3.629-1.281-6.315-4.333-9.925-5.772a16.065,16.065,0,0,1-3.258-1.843C889.2,335.2,888.706,334.5,888.466,332.338Z" transform="translate(-572.428 -210.761)" fill="#3f3d56" />
    <g id="Group_3" data-name="Group 3" transform="translate(312.859 101.015)" opacity="0.1">
      <path id="Path_90" data-name="Path 90" d="M894.72,319.406a3.776,3.776,0,0,0,.2-.453,11.011,11.011,0,0,0,.24-3.719,6.682,6.682,0,0,1,.116-1.243,5.245,5.245,0,0,0-.491,2.367A17.235,17.235,0,0,1,894.72,319.406Z" transform="translate(-891.203 -313.99)" />
      <path id="Path_91" data-name="Path 91" d="M935.02,393.078a4.718,4.718,0,0,1-5.427-.288,9.873,9.873,0,0,1-3.187-4.76c-.828-2.21-1.442-4.7-3.33-6.124-.678-.509-1.5-.843-2.161-1.352a9.18,9.18,0,0,1-2.786-4.85,50.435,50.435,0,0,0-2.247-6.79,10.221,10.221,0,0,0-4.768-5.15c-2.038-.918-4.39-.858-6.5-1.6-3.633-1.281-6.318-4.333-9.925-5.772a16.271,16.271,0,0,1-3.262-1.843,4.63,4.63,0,0,1-2.509-4.079c-.375-3.243-3.67-6.071-3.157-9.127a4.745,4.745,0,0,0-.221.509c-1.124,3.3,2.622,6.281,3,9.738.244,2.161.749,2.854,2.509,4.079a16.273,16.273,0,0,0,3.262,1.843c3.607,1.438,6.292,4.494,9.925,5.772,2.109.749,4.461.685,6.5,1.6a10.3,10.3,0,0,1,4.768,5.15,45.936,45.936,0,0,1,2.247,6.79c.551,1.813,1.273,3.7,2.787,4.85.678.509,1.5.843,2.161,1.352,1.873,1.419,2.5,3.914,3.33,6.124a10.035,10.035,0,0,0,3.206,4.753,4.724,4.724,0,0,0,5.427.288,5.532,5.532,0,0,0,1.832-3.116A4.6,4.6,0,0,1,935.02,393.078Z" transform="translate(-885.331 -331.096)" />
      <path id="Path_92" data-name="Path 92" d="M1038.24,447.113a1.577,1.577,0,0,0-.18.876c.847-.835,2.757-.345,3.423-1.419a1.368,1.368,0,0,0,.172-.88C1040.787,446.514,1038.877,446.023,1038.24,447.113Z" transform="translate(-980.854 -396.364)" />
      <path id="Path_93" data-name="Path 93" d="M1023.472,462.781c-.071.375-.142.775-.232,1.165a4.4,4.4,0,0,0,5.314-3.446A4.356,4.356,0,0,1,1023.472,462.781Z" transform="translate(-971.588 -405.627)" />
    </g>
    <path id="Path_94" data-name="Path 94" d="M900.691,370.111s1.247,2.517-2.435,2.569,2.371,16.345,2.371,16.345l6.12,7.79,7.614-4.12.438-11.363.562-6.865s-7.116-2.311-5.805-5.367S900.691,370.111,900.691,370.111Z" transform="translate(-579.813 -246.732)" fill="#fbbebe" />
    <path id="Path_95" data-name="Path 95" d="M965.75,541.509s4.494,4.423,9.738-1.446l-4.026-4.273h-5.094Z" transform="translate(-622.771 -351.703)" fill="#575a89" />
    <path id="Path_96" data-name="Path 96" d="M966.018,535.79l-.618,5.719s4.494,4.423,9.738-1.446" transform="translate(-622.552 -351.703)" opacity="0.1" />
    <path id="Path_97" data-name="Path 97" d="M978.9,537.87s1.809,4.745,3.12,6.18,3.371,11.36.625,10.236-7.989-9.487-8.3-10.921a48.569,48.569,0,0,1-.434-5.494Z" transform="translate(-627.875 -353.004)" fill="#fbbebe" />
    <path id="Path_98" data-name="Path 98" d="M832.42,542.631l24.218.936-2.809-10.24-12.2-.247Z" transform="translate(-520.655 -333.42)" fill="#575a89" />
    <path id="Path_99" data-name="Path 99" d="M841.41,542.631l24.221.936-2.809-10.24-12.2-.247Z" transform="translate(-526.278 -333.42)" opacity="0.1" />
    <path id="Path_100" data-name="Path 100" d="M884.6,609.872c-.573,1.067-.352,4.76-.094,7.491.165,1.738.345,3.075.345,3.075s-9.052,2.809-10.423.375a7.406,7.406,0,0,1-.581-2.97,59.9,59.9,0,0,1,.581-9.142s-.375-8.3-.562-9.112c-.075-.326-.191-1.36-.3-2.479-.165-1.663-.322-3.513-.322-3.513l12.36-6.554s0,1.228-.022,3.12C885.51,596.1,885.311,608.561,884.6,609.872Z" transform="translate(-564.909 -383.758)" fill="#fbbebe" />
    <path id="Path_101" data-name="Path 101" d="M885.864,670.716s-9.052,2.809-10.423.375a7.4,7.4,0,0,1-.581-2.97c1.873-.285,7.573-1.071,10.659-.479C885.684,669.379,885.864,670.716,885.864,670.716Z" transform="translate(-565.922 -434.036)" opacity="0.1" />
    <path id="Path_102" data-name="Path 102" d="M884.9,719.157h-.142c-1.09.041-7.285,0-7.285,0a3.363,3.363,0,0,1-.255-.3,5.109,5.109,0,0,1-.805-4.944c1.124-3.06,1.247-8.678,1.247-8.678a4.021,4.021,0,0,0,.064-2.247,4.056,4.056,0,0,1-.127-2.06,5.34,5.34,0,0,0-.375-1.435,4.279,4.279,0,0,1,.064-2.124,15.891,15.891,0,0,0-.625-3.933c-.562-1.622-4.682-20.91-3.682-23.221,0,0,8.738-1.5,12.049-.375l-.438,14.981s-1.562,4.494-.251,5.682.064,4.869.064,4.869-.187.685.936,3,0,3.371,0,3.371v4.431a9.476,9.476,0,0,0,.124,5.431C886.459,714.037,885.339,719.079,884.9,719.157Z" transform="translate(-564.649 -435.287)" fill="#3f3d56" />
    <path id="Path_103" data-name="Path 103" d="M931.89,606.682c-.573,1.067-.352,4.76-.094,7.491.165,1.738.345,3.075.345,3.075s-9.053,2.809-10.423.375a7.4,7.4,0,0,1-.581-2.97,59.9,59.9,0,0,1,.581-9.142s-.375-8.3-.562-9.112c-.1-.438-.277-4.618-.416-8.367-.116-3.2-.21-6.09-.21-6.09l12.36,1.91s0,5.435-.154,11.019C932.6,600.285,932.35,605.835,931.89,606.682Z" transform="translate(-594.487 -380.568)" fill="#fbbebe" />
    <path id="Path_104" data-name="Path 104" d="M933.154,670.716s-9.053,2.809-10.423.375a7.4,7.4,0,0,1-.581-2.97c1.873-.285,7.573-1.071,10.659-.479C932.974,669.379,933.154,670.716,933.154,670.716Z" transform="translate(-595.501 -434.036)" opacity="0.1" />
    <path id="Path_105" data-name="Path 105" d="M932.172,719.132h-.142c-1.09.041-7.285,0-7.285,0a3.364,3.364,0,0,1-.255-.3,5.109,5.109,0,0,1-.805-4.944c1.124-3.075,1.236-8.693,1.236-8.693a4.022,4.022,0,0,0,.064-2.247,4.056,4.056,0,0,1-.127-2.06,5.332,5.332,0,0,0-.375-1.435,4.279,4.279,0,0,1,.064-2.124,15.9,15.9,0,0,0-.625-3.933c-.562-1.622-4.682-20.91-3.682-23.221,0,0,8.738-1.5,12.049-.375l-.438,14.981s-1.562,4.495-.251,5.682.064,4.869.064,4.869-.187.685.936,3,0,3.371,0,3.371v4.431a9.476,9.476,0,0,0,.124,5.431C933.719,714,932.611,719.054,932.172,719.132Z" transform="translate(-594.208 -435.262)" fill="#3f3d56" />
    <circle id="Ellipse_9" data-name="Ellipse 9" cx="8.802" cy="8.802" r="8.802" transform="translate(316.945 108.719)" opacity="0.1" />
    <circle id="Ellipse_10" data-name="Ellipse 10" cx="8.802" cy="8.802" r="8.802" transform="translate(316.945 108.345)" fill="#fbbebe" />
    <path id="Path_106" data-name="Path 106" d="M873.24,593.594l12.36-6.554s0,1.229-.022,3.12c-1.805,1.079-4.528,2.7-7.146,4.232-1.423.835-2.813,1.644-4,2.322a5.322,5.322,0,0,1-.865.375C873.4,595.445,873.24,593.594,873.24,593.594Z" transform="translate(-564.909 -383.758)" opacity="0.1" />
    <path id="Path_107" data-name="Path 107" d="M932.915,583.81s0,5.435-.154,11.019h-.045a20.8,20.8,0,0,1-2.768-.086c-1.614-.172-2.906-.6-3.371-1.446-.94-1.648-3.573-3.745-5.8-5.307-.116-3.2-.21-6.09-.21-6.09Z" transform="translate(-594.512 -380.543)" opacity="0.1" />
    <path id="Path_108" data-name="Path 108" d="M878.809,409.235a35.651,35.651,0,0,0-.18,7.352c5.678,4.682,4.618,14.543,4.618,14.543s4.371,19.978,3.435,21.787,2.12,12.921,2.12,12.921a54.492,54.492,0,0,1-7.891.906,20.786,20.786,0,0,1-2.768-.086c-1.614-.172-2.906-.6-3.371-1.446-1.745-3.056-9.3-7.614-9.3-7.614s-4.787,2.869-9.244,5.479c-1.423.835-2.813,1.644-4,2.322a7.431,7.431,0,0,1-3.127.858c-5.3.393-12.36-2.925-11.236-4.1,1.375-1.438,8.18-26.656,8.18-26.656s3.431-15.607,6.427-17.79a3.24,3.24,0,0,0,1.124-1.569c1.026-2.85-.689-7.42-.689-7.42s-9.674-11.921-9.24-12.611.438-4.367.438-4.367,1.187-5.805,1.873-8.614,5.618-3.5,7.053-3.247,4.678,1.124,6.049,0,3.685.438,3.685.438l5.685,1.566,5.112-3s5.124.262,5.562.948,7.18,2,7.18,2c3.431,2.307,3.307,13.3,3.307,13.3s-8.24,7.176-9.925,10.862A12.383,12.383,0,0,0,878.809,409.235Z" transform="translate(-542.706 -253.568)" fill="#575a89" />
    <path id="Path_109" data-name="Path 109" d="M958.1,418.2l1.873,1.5,1.936,17.416,1.933,17.48s.749,1.749,1.375,1.562.562,10.36.562,10.36-7.169-4.408-9.738,1.446l-2-14.116s-2.562-14.42-2.5-15.543-1.311-13.3-1.311-13.3Z" transform="translate(-613.064 -278.155)" fill="#575a89" />
    <path id="Path_110" data-name="Path 110" d="M853.084,420.37l-1.374,1.685s.127,7.24-.936,8.989,2.936,11.985,4.435,11.36,4.869-16.6,4.869-16.79S853.084,420.37,853.084,420.37Z" transform="translate(-550.746 -279.512)" fill="#575a89" />
    <path id="Path_111" data-name="Path 111" d="M850.1,447.87s-4.371,4.431-4.06,6.554,4.494,8.794,10.487,5.21C856.531,459.634,862.089,449.181,850.1,447.87Z" transform="translate(-547.889 -296.712)" fill="#575a89" />
    <path id="Path_112" data-name="Path 112" d="M892.1,800.6c-1.09.041-7.285,0-7.285,0a3.356,3.356,0,0,1-.255-.3C886.144,799.763,889.568,798.954,892.1,800.6Z" transform="translate(-571.989 -516.72)" opacity="0.1" />
    <path id="Path_113" data-name="Path 113" d="M939.409,800.6c-1.09.041-7.285,0-7.285,0a3.355,3.355,0,0,1-.255-.3C933.447,799.763,936.87,798.954,939.409,800.6Z" transform="translate(-601.58 -516.72)" opacity="0.1" />
    <path id="Path_114" data-name="Path 114" d="M875.6,509.11c-.955,9.161-.641,27.341-.442,35.416-1.423.835-2.813,1.644-4,2.322a7.432,7.432,0,0,1-3.127.858C867.629,545.264,873.127,520.181,875.6,509.11Z" transform="translate(-561.635 -335.016)" opacity="0.1" />
    <path id="Path_115" data-name="Path 115" d="M889.449,495.23c-.026.131-.479,2.124-1.169,5.2C888.55,497.8,888.924,495.919,889.449,495.23Z" transform="translate(-574.316 -326.334)" opacity="0.1" />
    <path id="Path_116" data-name="Path 116" d="M914.618,492.59s5.307,33.334-10.408,37.454C904.206,530.029,915.083,528.377,914.618,492.59Z" transform="translate(-584.28 -324.683)" opacity="0.1" />
    <path id="Path_117" data-name="Path 117" d="M941.3,537.2a20.777,20.777,0,0,1-2.768-.086l-4.24-45.577C936.994,493.308,940.23,525.653,941.3,537.2Z" transform="translate(-603.094 -324.026)" opacity="0.1" />
    <path id="Path_118" data-name="Path 118" d="M898.944,334.005a2.32,2.32,0,0,1,.835.086,3.645,3.645,0,0,1,1.056.794,3.764,3.764,0,0,0,3.573.693,4.712,4.712,0,0,1,1.345-.375,2.142,2.142,0,0,1,1.7,1.124c.371.6.562,1.311.88,1.951a2.452,2.452,0,0,0,1.528,1.4,2.674,2.674,0,0,1,.974.225,1.377,1.377,0,0,1,.419.581c.584,1.262,1.049,2.753,2.3,3.371a3.435,3.435,0,0,0,1.464.318,3.06,3.06,0,0,0,1.5-.27,2.87,2.87,0,0,0,1.1-1.1,6.844,6.844,0,0,0,.685-4.378,12.046,12.046,0,0,0-1.959-5.266,10.993,10.993,0,0,0-10.056-4.64,14.018,14.018,0,0,0-2,.375,10.948,10.948,0,0,0-6.165,3.824,12.974,12.974,0,0,1-1.15,1.416C897.625,334.077,898.285,334.02,898.944,334.005Z" transform="translate(-579.751 -222.035)" opacity="0.1" />
    <path id="Path_119" data-name="Path 119" d="M898.944,333.005a2.319,2.319,0,0,1,.835.086,3.645,3.645,0,0,1,1.056.794,3.764,3.764,0,0,0,3.573.693,4.711,4.711,0,0,1,1.345-.375,2.142,2.142,0,0,1,1.7,1.124c.371.6.562,1.311.88,1.951a2.452,2.452,0,0,0,1.528,1.4,2.674,2.674,0,0,1,.974.225,1.377,1.377,0,0,1,.419.581c.584,1.262,1.049,2.753,2.3,3.371a3.435,3.435,0,0,0,1.464.318,3.06,3.06,0,0,0,1.5-.27,2.87,2.87,0,0,0,1.1-1.1,6.844,6.844,0,0,0,.685-4.378,12.045,12.045,0,0,0-1.959-5.266,10.993,10.993,0,0,0-10.056-4.641,14.018,14.018,0,0,0-2,.375,10.948,10.948,0,0,0-6.165,3.824,12.971,12.971,0,0,1-1.15,1.416C897.625,333.077,898.285,333.02,898.944,333.005Z" transform="translate(-579.751 -221.41)" fill="#3f3d56" />
    <path id="Path_120" data-name="Path 120" d="M874.184,398.2s.438,3.5-1.06,4.371S874.184,398.2,874.184,398.2Z" transform="translate(-564.542 -265.645)" opacity="0.1" />
    <path id="Path_121" data-name="Path 121" d="M961.57,463.836s3.558-5.243,4.06-3.745S961.57,463.836,961.57,463.836Z" transform="translate(-620.156 -304.187)" opacity="0.1" />
    <path id="Path_122" data-name="Path 122" d="M962.24,470.169s3.509-4.307,3.846-2.622S962.24,470.169,962.24,470.169Z" transform="translate(-620.575 -308.775)" opacity="0.1" />
    <path id="Path_123" data-name="Path 123" d="M899.394,459.039a5.7,5.7,0,0,1-3.528-1.161h-.307a5.544,5.544,0,0,1-3.854,1.449,5.468,5.468,0,0,1-4-1.6H887.3a5.884,5.884,0,0,1-7.6-.139l-1.464-.026s1.715,4.569.689,7.42l25.03.446a35.647,35.647,0,0,1,.18-7.352v-.034l-1.375-.026a5.761,5.761,0,0,1-3.371,1.026Z" transform="translate(-568.036 -302.773)" opacity="0.1" />
    <path id="Path_124" data-name="Path 124" d="M899.394,461.039a5.7,5.7,0,0,1-3.528-1.161h-.307a5.543,5.543,0,0,1-3.854,1.449,5.468,5.468,0,0,1-4-1.6H887.3a5.884,5.884,0,0,1-7.6-.139l-1.464-.026s1.715,4.569.689,7.42l25.03.446a35.647,35.647,0,0,1,.18-7.352v-.034l-1.375-.026a5.761,5.761,0,0,1-3.371,1.026Z" transform="translate(-568.036 -304.024)" opacity="0.1" />
    <path id="Path_125" data-name="Path 125" d="M899.394,460.039a5.7,5.7,0,0,1-3.528-1.161h-.307a5.544,5.544,0,0,1-3.854,1.449,5.468,5.468,0,0,1-4-1.6H887.3a5.884,5.884,0,0,1-7.6-.139l-1.464-.026s1.715,4.569.689,7.42l25.03.446a35.647,35.647,0,0,1,.18-7.352v-.034l-1.375-.026a5.761,5.761,0,0,1-3.371,1.026Z" transform="translate(-568.036 -303.398)" fill="#3f3d56" />
    <path id="Path_126" data-name="Path 126" d="M931.75,395.83s5.27.337,5.3,1.086S931.75,395.83,931.75,395.83Z" transform="translate(-601.505 -264.163)" opacity="0.1" />
    <path id="Path_127" data-name="Path 127" d="M888.713,387.3s-5.27.337-5.3,1.086S888.713,387.3,888.713,387.3Z" transform="translate(-571.27 -258.828)" opacity="0.1" />
    <path id="Path_128" data-name="Path 128" d="M940.676,428.021c-.052-.037-.1-.067-.157-.1,1.348,1.214,1.124,3.865-.532,6.053s-4.169,3.1-5.7,2.116c.049.041.09.086.142.127,1.5,1.146,4.12.247,5.85-2.015S942.182,429.171,940.676,428.021Z" transform="translate(-603.094 -284.234)" opacity="0.1" />
    <path id="Path_129" data-name="Path 129" d="M872,433.2c-1.333-2.4-1.161-5.06.348-6.067-.056.026-.116.049-.172.079-1.655.921-1.873,3.682-.5,6.169s3.843,3.745,5.5,2.839a1.451,1.451,0,0,0,.157-.1C875.681,436.86,873.336,435.6,872,433.2Z" transform="translate(-563.369 -283.74)" opacity="0.1" />
    <path id="Path_130" data-name="Path 130" d="M875.945,387.683h0l-.483.749-1.232-.655.648-1A2.715,2.715,0,0,1,875.945,387.683Z" transform="translate(-565.528 -258.503)" opacity="0.1" />
    <path id="Path_131" data-name="Path 131" d="M855.873,435.049s1.1-5.161-.375-6.8-1-10.24,1.247-10.053,5.618,6.989,5.056,8.427-2.685,8.8-2.685,8.8Z" transform="translate(-553.284 -278.15)" fill="#fbbebe" />
    <path id="Path_132" data-name="Path 132" d="M917.6,349.051a2.869,2.869,0,0,1-1.1,1.1,3.06,3.06,0,0,1-1.5.27,3.435,3.435,0,0,1-1.464-.318c-1.247-.622-1.712-2.112-2.3-3.371a1.378,1.378,0,0,0-.382-.592,2.674,2.674,0,0,0-.963-.236,2.472,2.472,0,0,1-1.528-1.4c-.322-.637-.513-1.341-.88-1.951a2.063,2.063,0,0,0-1.7-1.124,4.6,4.6,0,0,0-1.345.393,3.775,3.775,0,0,1-3.573-.7,3.645,3.645,0,0,0-1.056-.794,2.318,2.318,0,0,0-.835-.086c-.431,0-.858.041-1.288.075a9.409,9.409,0,0,1-.685.8c.655-.056,1.315-.112,1.974-.127a2.318,2.318,0,0,1,.835.086,3.644,3.644,0,0,1,1.056.794,3.775,3.775,0,0,0,3.573.7,4.6,4.6,0,0,1,1.345-.393,2.142,2.142,0,0,1,1.7,1.124c.371.6.562,1.311.88,1.951a2.453,2.453,0,0,0,1.528,1.4,2.674,2.674,0,0,1,.963.236,1.378,1.378,0,0,1,.419.581c.584,1.262,1.049,2.753,2.3,3.371a3.434,3.434,0,0,0,1.464.318,3.06,3.06,0,0,0,1.5-.27,2.869,2.869,0,0,0,1.1-1.1,6.213,6.213,0,0,0,.749-3.468,5.723,5.723,0,0,1-.786,2.73Z" transform="translate(-579.77 -229.388)" opacity="0.1" />
    <ellipse id="Ellipse_11" data-name="Ellipse 11" cx="3.371" cy="2.285" rx="3.371" ry="2.285" transform="translate(300.878 156.424)" fill="#575a89" />
    <circle id="Ellipse_12" data-name="Ellipse 12" cx="115.544" cy="115.544" r="115.544" transform="translate(78.83 54.793)" fill="#6c63ff" />
    <path id="Path_133" data-name="Path 133" d="M528.362,571.2c0,18.24-28.674,1.558-59.416,1.558s-61.836,15.993-61.836-2.247c0-10.4,9.91-24.865,24.128-35.371h0c10.712-7.918,23.865-13.588,37.079-13.588,13.588,0,26.9,6.139,37.517,14.566C519.235,546.741,528.362,561.018,528.362,571.2Z" transform="translate(-273.361 -342.796)" fill="#444053" />
    <path id="Path_134" data-name="Path 134" d="M546.122,536.1c-16.341-2.461-45.9-5.461-74.592-.977,10.712-7.918,23.865-13.588,37.079-13.588C522.193,521.53,535.5,527.669,546.122,536.1Z" transform="translate(-313.654 -342.784)" fill="#f6f8fb" />
    <path id="Path_135" data-name="Path 135" d="M349.458,281.31s-34.806,22.251-34.521,57.057S349.458,281.31,349.458,281.31Z" transform="translate(-215.709 -192.535)" opacity="0.05" />
    <path id="Path_136" data-name="Path 136" d="M830.4,113.452s-31.536-1.9-27.817,20.2a5.371,5.371,0,0,0,2.8,5.678s.056-1.637,3.232-1.082a14.607,14.607,0,0,0,3.427.165,7.116,7.116,0,0,0,4.187-1.73h0s8.865-3.659,12.315-18.15c0,0,2.551-3.161,2.449-3.97l-5.322,2.27s1.817,3.839.375,7.03c0,0-.172-6.888-1.195-6.742-.206.034-2.764,1.33-2.764,1.33s3.127,6.689.749,11.547c0,0,.9-8.24-1.745-11.064l-3.745,2.187s3.655,6.906,1.176,12.543c0,0,.637-8.644-1.963-12.011l-3.4,2.648s3.435,6.809,1.341,11.483c0,0-.273-10.064-2.075-10.824,0,0-2.97,2.622-3.423,3.7,0,0,2.352,4.94.9,7.547,0,0-.9-6.7-1.629-6.742,0,0-2.959,4.442-3.27,7.491a16.192,16.192,0,0,1,2.551-7.914,8.885,8.885,0,0,0-4.528,2.348s.461-3.142,5.243-3.416c0,0,2.446-3.371,3.1-3.573,0,0-4.775-.4-7.67.884,0,0,2.547-2.963,8.543-1.618l3.371-2.734s-6.285-.861-8.951.09c0,0,3.067-2.622,9.854-.712l3.652-2.184s-5.36-1.154-8.554-.749c0,0,3.371-1.816,9.622.154l2.622-1.172s-3.929-.772-5.079-.891-1.21-.442-1.21-.442a13.614,13.614,0,0,1,7.39.858S830.491,113.8,830.4,113.452Z" transform="translate(-520.524 -87.52)" fill="#6c63ff" />
    <path id="Path_137" data-name="Path 137" d="M769.784,87.259s-14.232-.861-12.569,9.124a2.436,2.436,0,0,0,1.266,2.566s.023-.749,1.461-.487a6.763,6.763,0,0,0,1.547.075,3.254,3.254,0,0,0,1.9-.783h0s4-1.655,5.562-8.2c0,0,1.154-1.427,1.124-1.794l-2.4,1.026a4.3,4.3,0,0,1,.176,3.176s-.079-3.112-.539-3.037c-.094,0-1.251.6-1.251.6s1.416,3.023.348,5.217c0,0,.4-3.723-.786-5l-1.693.989s1.652,3.124.532,5.67c0,0,.285-3.906-.888-5.427l-1.536,1.195s1.551,3.075.607,5.187c0,0-.124-4.547-.94-4.891a9.393,9.393,0,0,0-1.547,1.67s1.064,2.247.4,3.412c0,0-.4-3.03-.749-3.041a10.043,10.043,0,0,0-1.476,3.371,7.3,7.3,0,0,1,1.15-3.577,4.011,4.011,0,0,0-2.045,1.06s.206-1.419,2.375-1.543a9.342,9.342,0,0,1,1.4-1.614,8.782,8.782,0,0,0-3.464.4s1.15-1.341,3.862-.749l1.5-1.232a13.008,13.008,0,0,0-4.045.037s1.386-1.184,4.453-.318l1.648-.989a14.987,14.987,0,0,0-3.865-.333s1.524-.82,4.348.071l1.18-.532s-1.775-.348-2.292-.4-.551-.2-.551-.2a6.138,6.138,0,0,1,3.333.375A15.083,15.083,0,0,0,769.784,87.259Z" transform="translate(-492.255 -71.151)" fill="#6c63ff" />
    <ellipse id="Ellipse_13" data-name="Ellipse 13" cx="10.086" cy="1.704" rx="10.086" ry="1.704" transform="translate(391.819 270.009)" fill="#6c63ff" opacity="0.1" />
    <ellipse id="Ellipse_14" data-name="Ellipse 14" cx="10.086" cy="1.704" rx="10.086" ry="1.704" transform="translate(7.425 298.358)" fill="#6c63ff" opacity="0.1" />
    <ellipse id="Ellipse_15" data-name="Ellipse 15" cx="10.086" cy="1.704" rx="10.086" ry="1.704" transform="translate(65.976 300.496)" fill="#6c63ff" opacity="0.1" />
    <ellipse id="Ellipse_16" data-name="Ellipse 16" cx="15.06" cy="2.547" rx="15.06" ry="2.547" transform="translate(364.77 287.429)" fill="#6c63ff" />
    <path id="Path_138" data-name="Path 138" d="M1057.5,795.808a4.393,4.393,0,0,0,1.438-2.169,1.932,1.932,0,0,0-1-2.206c-.921-.352-1.906.288-2.652.932a3.555,3.555,0,0,1-2.581,1.243,3.921,3.921,0,0,0,1.214-3.674,1.543,1.543,0,0,0-.337-.749c-.513-.547-1.438-.315-2.052.116-1.948,1.371-2.491,4.015-2.5,6.4a12.015,12.015,0,0,1-.034-2.622,2.708,2.708,0,0,0-.989-2.333,3,3,0,0,0-1.5-.352,3.117,3.117,0,0,0-2.449.693,2.409,2.409,0,0,0,.1,3,9.712,9.712,0,0,0,2.532,2.03,5.617,5.617,0,0,1,1.813,1.727,1.8,1.8,0,0,1,.135.311h5.487A15.275,15.275,0,0,0,1057.5,795.808Z" transform="translate(-671.448 -509.993)" fill="#6c63ff" />
    <path id="Path_139" data-name="Path 139" d="M99.865,723.55s2.056,2.689-.951,6.742-5.487,7.491-4.494,10.023c0,0,4.536-7.543,8.24-7.652S103.924,728.086,99.865,723.55Z" transform="translate(-77.645 -469.14)" fill="#6c63ff" />
    <path id="Path_140" data-name="Path 140" d="M100.067,723.55a3.371,3.371,0,0,1,.419.843c3.6,4.232,5.521,8.184,2.06,8.281-3.228.094-7.116,5.861-8.026,7.318a3.472,3.472,0,0,0,.112.333s4.536-7.543,8.24-7.652S104.127,728.086,100.067,723.55Z" transform="translate(-77.847 -469.14)" opacity="0.1" />
    <path id="Path_141" data-name="Path 141" d="M118.746,731.676c0,.948-.109,1.715-.24,1.715s-.236-.749-.236-1.715.131-.5.266-.5S118.746,730.728,118.746,731.676Z" transform="translate(-92.702 -473.839)" fill="#ffd037" />
    <path id="Path_142" data-name="Path 142" d="M120.291,734.639c-.831.453-1.554.727-1.618.61s.562-.573,1.393-1.026.5-.124.566,0S121.137,734.185,120.291,734.639Z" transform="translate(-92.951 -475.671)" fill="#ffd037" />
    <path id="Path_143" data-name="Path 143" d="M72.591,723.55s-2.056,2.689.948,6.742,5.487,7.491,4.494,10.023c0,0-4.539-7.543-8.24-7.652S68.527,728.086,72.591,723.55Z" transform="translate(-61.241 -469.14)" fill="#6c63ff" />
    <path id="Path_144" data-name="Path 144" d="M72.582,723.55a3.232,3.232,0,0,0-.419.843c-3.6,4.232-5.524,8.184-2.06,8.281,3.225.094,7.116,5.861,8.023,7.318a3.457,3.457,0,0,1-.109.333s-4.539-7.543-8.24-7.652S68.518,728.086,72.582,723.55Z" transform="translate(-61.232 -469.14)" opacity="0.1" />
    <path id="Path_145" data-name="Path 145" d="M70.1,731.676c0,.948.1,1.715.236,1.715s.236-.749.236-1.715-.131-.5-.262-.5S70.1,730.728,70.1,731.676Z" transform="translate(-62.574 -473.839)" fill="#ffd037" />
    <path id="Path_146" data-name="Path 146" d="M65.749,734.639c.831.453,1.558.727,1.622.61s-.562-.573-1.393-1.026-.506-.124-.566,0S64.917,734.185,65.749,734.639Z" transform="translate(-59.537 -475.671)" fill="#ffd037" />
    <path id="Path_147" data-name="Path 147" d="M71.85,762.2s5.753-.176,7.491-1.412,8.85-2.708,9.281-.749,8.644,9.85,2.15,9.9-15.09-1.015-16.82-2.068S71.85,762.2,71.85,762.2Z" transform="translate(-63.668 -491.366)" fill="#a8a8a8" />
    <path id="Path_148" data-name="Path 148" d="M90.88,774.459c-6.494.052-15.09-1.015-16.82-2.068-1.318-.8-1.843-3.682-2.019-5.011H71.85s.375,4.64,2.094,5.693,10.326,2.12,16.82,2.067c1.873,0,2.521-.685,2.487-1.67C92.989,774.073,92.277,774.447,90.88,774.459Z" transform="translate(-63.668 -496.554)" opacity="0.2" />
    <path id="Path_149" data-name="Path 149" d="M414.179,446.58c2.2-.124,12.547-.9,19.12-4.652a7.449,7.449,0,0,1,3.472-1.022c2.09-.06,4.494.813,2.955,5.7-2.494,7.989-16.978,16.978-25.967,16.48-8.644-.479-18.9-3.963-25.671-16.21a7.491,7.491,0,0,1-.925-3.854c.079-2.472.978-5.569,5.618-2.116,6.27,4.663,18.165,5.547,20.551,5.678a7.9,7.9,0,0,0,.846,0Z" transform="translate(-260.883 -291.392)" fill="#444053" />
    <path id="Path_150" data-name="Path 150" d="M636.179,446.58c2.2-.124,12.547-.9,19.12-4.652a7.45,7.45,0,0,1,3.472-1.022c2.09-.06,4.494.813,2.955,5.7-2.494,7.989-16.978,16.978-25.966,16.48-8.644-.479-18.9-3.963-25.671-16.21a7.491,7.491,0,0,1-.925-3.854c.079-2.472.978-5.569,5.618-2.116,6.27,4.663,18.165,5.547,20.551,5.678a7.894,7.894,0,0,0,.846,0Z" transform="translate(-399.736 -291.392)" fill="#444053" />
  </g>
</svg>