<svg xmlns="http://www.w3.org/2000/svg" width="380.625" height="271.624" viewBox="0 0 380.625 271.624">
  <g id="Group_1" data-name="Group 1" transform="translate(0 0)">
    <circle id="Ellipse_2" data-name="Ellipse 2" cx="15.976" cy="15.976" r="15.976" transform="translate(13.735 5.612)" fill="#ff6584" />
    <path id="Path_5" data-name="Path 5" d="M452.364,642.869a124.528,124.528,0,0,0,39.931,9.242,100.408,100.408,0,0,0,19.385-.43c5.607-.745,11.3-2.273,15.977-5.579a23.7,23.7,0,0,0,9.253-13.917,31.161,31.161,0,0,0-1.214-17.8,44.345,44.345,0,0,0-9.774-15.792c-3.887-3.978-9.332-7.6-15.154-6.916-5.6.655-9.666,5.179-11.157,10.413-1.787,6.275.269,12.913,3.057,18.563A58.99,58.99,0,0,0,523.977,644a61.754,61.754,0,0,0,30.161,9.665c10.744.484,22.3-2.008,30.766-8.95a26.945,26.945,0,0,0,9.086-14.137,38.761,38.761,0,0,0-.191-17.933c-2.824-12.736-10.283-23.683-14.6-35.874a57.692,57.692,0,0,1-2.465-9.142c-.142-.8-1.358-.46-1.216.335,2.234,12.541,9.3,23.338,13.942,35.017,4.227,10.638,6.742,23.7.481,34.085-5.632,9.344-16.818,13.9-27.25,15.061a58.185,58.185,0,0,1-29.994-4.87,60.319,60.319,0,0,1-23.965-19.082,46.471,46.471,0,0,1-7.66-15.093c-1.5-5.573-1.151-11.886,2.827-16.387a11.056,11.056,0,0,1,6.873-3.756,13.609,13.609,0,0,1,8,1.727c5.24,2.785,9.139,7.625,12.147,12.631a36.131,36.131,0,0,1,5.515,17.11,25.409,25.409,0,0,1-4.677,16.015c-7.012,9.442-20.19,10.588-31.006,10.66a123.269,123.269,0,0,1-39.04-6.091q-4.568-1.493-9.009-3.34c-.749-.311-1.075.909-.335,1.216Z" transform="translate(-323.879 -382.099)" fill="#e6e6e6" />
    <path id="Path_6" data-name="Path 6" d="M369.676,614.792l-3.387-5.2a2.736,2.736,0,0,1,.8-3.781l20.631-16.037a2.736,2.736,0,0,1,3.781.8l3.387,5.2a2.736,2.736,0,0,1-.8,3.781L373.457,615.59A2.736,2.736,0,0,1,369.676,614.792Z" transform="translate(-273.977 -394.942)" fill="#2f2e41" />
    <path id="Path_7" data-name="Path 7" d="M366.894,624.01l5.441-2.983a2.736,2.736,0,0,1,3.71,1.083l14.448,26.032a2.736,2.736,0,0,1-1.083,3.71l-5.441,2.983a2.736,2.736,0,0,1-3.71-1.083L365.811,627.72A2.736,2.736,0,0,1,366.894,624.01Z" transform="translate(-273.762 -413.117)" fill="#2f2e41" />
    <path id="Path_8" data-name="Path 8" d="M274.567,494.184a2.733,2.733,0,0,1-2.723-2.554l-.406-6.192a2.733,2.733,0,0,1,2.548-2.906l48.511-3.177A5.836,5.836,0,1,1,323.261,491l-48.511,3.177Q274.658,494.184,274.567,494.184Z" transform="translate(-219.258 -331.195)" fill="#6c63ff" />
    <path id="Path_9" data-name="Path 9" d="M297.4,494.2a2.736,2.736,0,0,1-2.73-2.631l-.346-9.249a2.733,2.733,0,0,1,2.629-2.833L336.844,478a2.733,2.733,0,0,1,2.833,2.629l.346,9.249a2.732,2.732,0,0,1-2.629,2.833L297.5,494.2Z" transform="translate(-232.523 -330.415)" fill="#ccc" />
    <path id="Path_10" data-name="Path 10" d="M276.263,596.631V576.56a58.107,58.107,0,0,0-21.283-45.32c-10.194-8.22-24.96-14.366-46.113-12.993l8.058-32.233-69.593,47.616,68.128,47.616-6.959-30.4S250.989,542.788,276.263,596.631Z" transform="translate(-147.332 -335.061)" fill="#3f3d56" />
    <path id="Path_11" data-name="Path 11" d="M329.766,604.153l-5.019-3.649a2.736,2.736,0,0,1-.6-3.817l30.414-41.83a2.736,2.736,0,0,1,3.817-.6l5.019,3.649a2.736,2.736,0,0,1,.6,3.817l-30.414,41.83A2.736,2.736,0,0,1,329.766,604.153Z" transform="translate(-249.505 -374.309)" fill="#2f2e41" />
    <path id="Path_12" data-name="Path 12" d="M324.036,648.092l4.02-4.727a2.736,2.736,0,0,1,3.852-.312l22.783,19.166a2.736,2.736,0,0,1,.312,3.852l-4.02,4.727a2.736,2.736,0,0,1-3.852.312l-22.783-19.166a2.736,2.736,0,0,1-.312-3.852Z" transform="translate(-249.369 -425.7)" fill="#2f2e41" />
    <circle id="Ellipse_3" data-name="Ellipse 3" cx="21.442" cy="21.442" r="21.442" transform="translate(80.757 95.001)" fill="#6c63ff" />
    <path id="Path_13" data-name="Path 13" d="M362.409,407.4a5.085,5.085,0,0,1-2.114-.412,3.42,3.42,0,0,1-1.841-2.222,2.3,2.3,0,0,1,.377-2.01,2.975,2.975,0,0,1,2.665-.973l-2.816-7.883.792-.283,3.31,9.267-.746-.169a2.547,2.547,0,0,0-2.541.558,1.477,1.477,0,0,0-.224,1.291,2.584,2.584,0,0,0,1.371,1.657,6.95,6.95,0,0,0,4.08.061l.15.827a13.862,13.862,0,0,1-2.462.29Z" transform="translate(-269.643 -281.508)" fill="#2f2e41" />
    <rect id="Rectangle_13" data-name="Rectangle 13" width="4.529" height="0.841" transform="translate(80.72 114.867) rotate(-11.864)" fill="#2f2e41" />
    <rect id="Rectangle_14" data-name="Rectangle 14" width="4.529" height="0.841" transform="translate(94.709 111.928) rotate(-11.864)" fill="#2f2e41" />
    <path id="Path_14" data-name="Path 14" d="M378.23,532.98H342.074a3.578,3.578,0,0,1-3.574-3.574l7.569-58.045a3.569,3.569,0,0,1,3.572-3.547h12.831A19.353,19.353,0,0,1,381.8,487.145v42.261a3.578,3.578,0,0,1-3.574,3.574Z" transform="translate(-258.128 -324.513)" fill="#ccc" />
    <path id="Path_15" data-name="Path 15" d="M291.427,522.021a2.737,2.737,0,0,1-2.5-1.614l-2.54-5.662a2.733,2.733,0,0,1,1.375-3.612l44.357-19.9a5.835,5.835,0,1,1,4.777,10.648l-44.357,19.9a2.717,2.717,0,0,1-1.115.239Z" transform="translate(-227.787 -337.79)" fill="#6c63ff" />
    <path id="Path_16" data-name="Path 16" d="M319.723,514.825a2.737,2.737,0,0,1-2.5-1.614l-4.338-9.67a2.736,2.736,0,0,1,1.375-3.612l36.423-16.339a2.733,2.733,0,0,1,3.612,1.375l4.338,9.67a2.733,2.733,0,0,1-1.375,3.612l-36.423,16.339A2.721,2.721,0,0,1,319.723,514.825Z" transform="translate(-243.145 -333.516)" fill="#ccc" />
    <path id="Path_17" data-name="Path 17" d="M351.651,346.786c-3.491-1.286-6.361,2.1-9.524,2.878-3.026.742-6.287-1-7.9-3.548-1.886-2.969-1.419-6.823.3-9.753a13.663,13.663,0,0,1,8.772-6.039,25.832,25.832,0,0,1,12.311.5,51.229,51.229,0,0,1,11.117,4,19.709,19.709,0,0,1,8.1,7.059,12.96,12.96,0,0,1,1.7,9.667,10.176,10.176,0,0,1-2.584,4.468c-1.266,1.341-2.717,2.5-3.9,3.925-1.786,2.15-2.986,5.674-1.225,8.217a4.117,4.117,0,0,0,1.493,1.323c.719.374,1.358-.714.637-1.089a3.471,3.471,0,0,1-1.692-3.363,6.842,6.842,0,0,1,1.679-4.2c1.237-1.486,2.766-2.69,4.072-4.111a11.361,11.361,0,0,0,2.7-4.693,14.051,14.051,0,0,0-1.44-10.17,19.872,19.872,0,0,0-8-7.64,49.648,49.648,0,0,0-11.346-4.362,29.309,29.309,0,0,0-12.866-.985,15.7,15.7,0,0,0-9.714,5.523,11.6,11.6,0,0,0-2.175,10.213,9.348,9.348,0,0,0,7.02,6.329,8.03,8.03,0,0,0,4.883-.637c1.638-.734,3.127-1.875,4.869-2.364a3.759,3.759,0,0,1,2.388.064c.763.281,1.092-.938.335-1.216Z" transform="translate(-254.211 -243.787)" fill="#2f2e41" />
    <path id="Path_18" data-name="Path 18" d="M746,422.663V402.592a58.107,58.107,0,0,1,21.283-45.32c10.194-8.22,24.96-14.366,46.113-12.993l-8.058-32.233,69.593,47.616L806.8,407.279l6.959-30.4S771.273,368.82,746,422.663Z" transform="translate(-494.305 -234.233)" fill="#3f3d56" />
    <path id="Path_19" data-name="Path 19" d="M832.984,314.905a5.835,5.835,0,0,1,3.045-10.344L884.37,299.4a2.736,2.736,0,0,1,3.007,2.427l-.209.022.209-.022.659,6.17A2.733,2.733,0,0,1,885.609,311l-48.34,5.162a5.924,5.924,0,0,1-.631.034A5.791,5.791,0,0,1,832.984,314.905Z" transform="translate(-543.461 -226.895)" fill="#6c63ff" />
    <path id="Path_20" data-name="Path 20" d="M869.847,425.367v-6.205a2.736,2.736,0,0,1,2.733-2.733H924.3a2.736,2.736,0,0,1,2.733,2.733v6.205A2.736,2.736,0,0,1,924.3,428.1H872.58A2.736,2.736,0,0,1,869.847,425.367Z" transform="translate(-566.084 -294.731)" fill="#6c63ff" />
    <path id="Path_21" data-name="Path 21" d="M806.276,400.8a2.716,2.716,0,0,1-1.366-1.584l-1.945-5.893a2.736,2.736,0,0,1,1.738-3.452l49.111-16.215a2.733,2.733,0,0,1,3.452,1.738l-.2.066.2-.066,1.946,5.892a2.736,2.736,0,0,1-1.738,3.452l-49.11,16.215a2.717,2.717,0,0,1-2.086-.154Z" transform="translate(-527.241 -269.86)" fill="#6c63ff" />
    <path id="Path_22" data-name="Path 22" d="M932.546,402.423,910.505,382.55a2.736,2.736,0,0,1-.2-3.86l4.155-4.609a2.733,2.733,0,0,1,3.86-.2l22.041,19.873a2.736,2.736,0,0,1,.2,3.86l-4.155,4.608a2.715,2.715,0,0,1-1.889.9q-.073,0-.144,0a2.713,2.713,0,0,1-1.827-.7Z" transform="translate(-589.126 -269.665)" fill="#6c63ff" />
    <circle id="Ellipse_4" data-name="Ellipse 4" cx="21.442" cy="21.442" r="21.442" transform="translate(265.944 18.481)" fill="#6c63ff" />
    <path id="Path_23" data-name="Path 23" d="M768.044,344.878a16.727,16.727,0,0,1,0-16.9l22.728-39.367a2.733,2.733,0,0,1,4.733,0l35,60.616a2.733,2.733,0,0,1-2.367,4.1H782.678A16.726,16.726,0,0,1,768.044,344.878Z" transform="translate(-505.754 -219.86)" fill="#ccc" />
    <path id="Path_24" data-name="Path 24" d="M872.9,221.6a7.735,7.735,0,0,0,4.452-1.06,3.419,3.419,0,0,0,1.345-2.553,2.3,2.3,0,0,0-.782-1.889,2.968,2.968,0,0,0-2.808-.4l1.135-8.293-.833-.114-1.334,9.75.7-.319a2.546,2.546,0,0,1,2.6.023,1.478,1.478,0,0,1,.484,1.217,2.584,2.584,0,0,1-1,1.9,6.954,6.954,0,0,1-3.98.9Z" transform="translate(-567.838 -173.517)" fill="#2f2e41" />
    <rect id="Rectangle_15" data-name="Rectangle 15" width="4.529" height="0.841" transform="translate(298.227 34.598)" fill="#2f2e41" />
    <path id="Path_25" data-name="Path 25" d="M729.214,141.6a17.756,17.756,0,0,0-8.932-11.468,17.188,17.188,0,0,0-14.75-.458,16.992,16.992,0,0,0-9.772,11.412,17.723,17.723,0,0,0-.269,7.773,20.162,20.162,0,0,0,3.4,7.568c1.661,2.405,3.614,4.588,5.406,6.892a64.234,64.234,0,0,1,13.134,32.132,38.335,38.335,0,0,1,.193,7.982c-.483,5.165-2.484,10.225-7.077,13.035a24.041,24.041,0,0,1-8.048,2.806,36.629,36.629,0,0,1-9.526.744c-5.4-.384-10.8-2.637-13.939-7.226a12.875,12.875,0,0,1-1.614-3.315c-.25-.774.968-1.106,1.216-.335,1.661,5.149,6.7,8.323,11.8,9.291a28.871,28.871,0,0,0,9.6-.009,29.686,29.686,0,0,0,8.5-2.3,12.732,12.732,0,0,0,5.7-5.27,18.579,18.579,0,0,0,2.1-7.184,47.729,47.729,0,0,0-1.724-16.516,63.57,63.57,0,0,0-6.684-16.234,62.431,62.431,0,0,0-4.967-7.267c-1.807-2.278-3.734-4.468-5.364-6.881a20.73,20.73,0,0,1-3.332-7.577,19.2,19.2,0,0,1,.137-7.9,18.2,18.2,0,0,1,9.2-12.1,18.72,18.72,0,0,1,14.94-1.2,19.081,19.081,0,0,1,10.683,9.827,18.2,18.2,0,0,1,1.192,3.443c.186.789-1.03,1.126-1.216.335Z" transform="translate(-454.542 -126.965)" fill="#2f2e41" />
    <path id="Path_26" data-name="Path 26" d="M774.192,153.491a9.709,9.709,0,0,0-11.337-6.248c-.79.185-1.127-1.031-.335-1.216a10.853,10.853,0,0,1,12.889,7.129c.265.769-.953,1.1-1.216.335Z" transform="translate(-503.618 -137.83)" fill="#2f2e41" />
    <path id="Path_27" data-name="Path 27" d="M790.189,167.176a2.315,2.315,0,0,1,1.211-3.037l5.794-2.49a2.312,2.312,0,1,1,1.826,4.249l-5.794,2.49A2.313,2.313,0,0,1,790.189,167.176Z" transform="translate(-519.808 -146.957)" fill="#2f2e41" />
    <path id="Path_28" data-name="Path 28" d="M812.379,377.189l-6.185-.5a2.736,2.736,0,0,1-2.5-2.945l3.934-48.456a5.835,5.835,0,0,1,11.633.945l-3.934,48.456A2.733,2.733,0,0,1,812.6,377.2C812.53,377.2,812.454,377.2,812.379,377.189Z" transform="translate(-527.737 -238.799)" fill="#6c63ff" />
    <path id="Path_29" data-name="Path 29" d="M157.679,189.853a10.2,10.2,0,1,1,19.286-6.43,14.69,14.69,0,1,1,28.082-3.155,11.913,11.913,0,0,1,21.1,10.638l-70.369-.126" transform="translate(-152.226 -147.943)" fill="#f2f2f2" />
    <path id="Path_30" data-name="Path 30" d="M496.679,329.853a10.2,10.2,0,1,1,19.286-6.43,14.69,14.69,0,1,1,28.082-3.155,11.913,11.913,0,0,1,21.1,10.638l-70.369-.126" transform="translate(-348.702 -229.083)" fill="#f2f2f2" />
  </g>
</svg>