<svg xmlns="http://www.w3.org/2000/svg" width="401.375" height="232.06" viewBox="0 0 401.375 232.06">
  <g id="Group_2" data-name="Group 2" transform="translate(0 -0.041)">
    <rect id="Rectangle_23" data-name="Rectangle 23" width="100.867" height="0.837" transform="translate(300.508 167.229)" fill="#3f3d56" />
    <path id="Path_31" data-name="Path 31" d="M771.744,379.787l2.93,15.486,6.278,1.674-1.674-18.416Z" transform="translate(-448.742 -220.079)" fill="#a0616a" />
    <path id="Path_32" data-name="Path 32" d="M855.744,379.787l2.93,15.486,6.278,1.674-1.674-18.416Z" transform="translate(-497.585 -220.079)" fill="#a0616a" />
    <path id="Path_33" data-name="Path 33" d="M893.648,584.234s-6.7-.419-6.7,1.674-3.348,9.208-3.348,9.208-2.511,8.371,4.185,7.534,10.882-8.371,10.882-8.371L897,586.326Z" transform="translate(-563.95 -411.97)" fill="#2f2e41" />
    <path id="Path_34" data-name="Path 34" d="M982.6,581.67s-4.467-2.872-4.148-.957.638,7.02,2.872,7.339,8.934,2.233,9.253,2.872,7.977,3.191,7.977-.957-4.786-7.339-4.786-7.339l-5.424-4.148s-3.51-.319-4.148,1.914S982.6,581.67,982.6,581.67Z" transform="translate(-619.358 -408.635)" fill="#2f2e41" />
    <path id="Path_35" data-name="Path 35" d="M873,332.947s-7.115-10.463-9.626-7.115,6.278,9.626,6.278,9.626Z" transform="translate(-552.192 -261.354)" fill="#a0616a" />
    <path id="Path_36" data-name="Path 36" d="M881.952,352.05c-.418-.419-7.952-7.534-7.952-7.534l5.441-3.767,6.278,6.278Z" transform="translate(-558.634 -270.412)" fill="#575a89" />
    <path id="Path_37" data-name="Path 37" d="M888.49,290.25s-5.441.419-5.022,5.022,3.976,19.88,3.976,19.88l2.093,4.185S897.28,295.272,888.49,290.25Z" transform="translate(-564.126 -241.048)" fill="#575a89" />
    <path id="Path_38" data-name="Path 38" d="M887.951,224.432l1.507,5.022h18.876l.544-5.441,1.632,5.441h2.427l.544-5.441,1.632,5.441h2.553l-2.4-5.783a46.62,46.62,0,0,1-2.531-8.556A16.119,16.119,0,0,0,896.95,202.25h0q-.334,0-.664.013c-10.58.429-17.355,11.508-13.3,21.288l2.451,5.9h2.009Z" transform="translate(-563.168 -189.879)" fill="#2f2e41" />
    <path id="Path_39" data-name="Path 39" d="M882.255,359.75s-12.975,10.882-9.208,25.531,5.022,60.688,5.022,60.688l12.974-1.256V386.955l18,34.32,2.93,24.694,14.649-2.511-6.7-30.134L907.045,374.91l-1.352-11.082Z" transform="translate(-557.681 -281.46)" fill="#2f2e41" />
    <circle id="Ellipse_5" data-name="Ellipse 5" cx="8.789" cy="8.789" r="8.789" transform="translate(324.783 17.393)" fill="#a0616a" />
    <path id="Path_40" data-name="Path 40" d="M905,248.006s3.767,13.812,1.674,15.486,14.649-5.441,14.649-5.441-7.115-7.952-6.278-11.3Z" transform="translate(-576.659 -215.755)" fill="#a0616a" />
    <path id="Path_41" data-name="Path 41" d="M912.325,264.347s-6.7,5.764-13.186,6.23c0,0-8.578,4.652-8.159,5.07s1.674,6.278,1.674,6.278,2.093,3.232,2.093,10.045c0,.837-2.93,12.556-2.93,12.556l24.694,3.348s6.7-21.764,7.115-29.3,2.93-15.486-.837-15.9S912.325,264.347,912.325,264.347Z" transform="translate(-568.498 -224.981)" fill="#575a89" />
    <path id="Path_42" data-name="Path 42" d="M957.441,266.007s2.93-2.511,4.6,3.348,8.371,24.275,6.7,28.042-11.719,20.508-11.719,20.508L952,314.557l10.045-18.834-5.859-13.393Z" transform="translate(-603.988 -226.641)" fill="#575a89" />
    <path id="Path_43" data-name="Path 43" d="M943.634,381.75s-12.975,7.952-8.789,9.626,11.3-7.115,11.3-7.115Z" transform="translate(-593.529 -294.252)" fill="#a0616a" />
    <path id="Path_44" data-name="Path 44" d="M774,38.5v8.789h3.348l1.256-3.767.314,3.767h9.312l1.256-3.767.314,3.767h3.871V38.5Z" transform="translate(-450.054 -22.363)" fill="#2f2e41" />
    <path id="Path_45" data-name="Path 45" d="M894.12,310.25s-.837,8.371.419,10.045S894.12,310.25,894.12,310.25Z" transform="translate(-570.174 -252.678)" opacity="0.2" />
    <rect id="Rectangle_24" data-name="Rectangle 24" width="177.459" height="0.837" transform="translate(74.081 203.641)" fill="#3f3d56" />
    <path id="Path_46" data-name="Path 46" d="M524.637,428.966l-51.488,51.488a41.973,41.973,0,0,1-59.357,0c-.695-.695-1.364-1.41-2-2.147a40.532,40.532,0,0,1-2.926-3.767,41.341,41.341,0,0,1-6.63-15.9q-.358-1.865-.54-3.767-.195-2.028-.2-4.093a42.17,42.17,0,0,1,1.557-11.393q.534-1.915,1.251-3.767a41.88,41.88,0,0,1,9.484-14.519l22.463-22.463a6.277,6.277,0,0,1,8.877,8.877l-22.463,22.463a29.661,29.661,0,0,0-4.424,5.642,29.208,29.208,0,0,0-4.19,15.159,30.166,30.166,0,0,0,.28,4.093,28.632,28.632,0,0,0,.779,3.767,29.41,29.41,0,0,0,49.157,12.941l12.941-12.941,23.019-23.019,15.528-15.528a29.466,29.466,0,0,0,3.294-37.677,6.28,6.28,0,1,1,10.3-7.186A42.045,42.045,0,0,1,524.637,428.966Z" transform="translate(-283.892 -288.897)" fill="#3f3d56" />
    <path id="Path_47" data-name="Path 47" d="M700.376,214.744q0,.465-.013.929a41.778,41.778,0,0,1-3.486,15.9,40.542,40.542,0,0,1-1.883,3.767,42.089,42.089,0,0,1-6.91,9.078L665.62,266.886a6.277,6.277,0,1,1-8.877-8.877l22.463-22.463c.067-.067.134-.134.2-.2a29.244,29.244,0,0,0,8.4-19.671c.013-.31.017-.619.017-.929q0-1.431-.134-2.838a29.385,29.385,0,0,0-8.48-17.964c-.448-.448-.9-.879-1.377-1.289a29.419,29.419,0,0,0-38.848,0c-.473.41-.929.841-1.377,1.289l-51.488,51.488a29.454,29.454,0,0,0,0,41.6,6.277,6.277,0,0,1-8.877,8.877,42.019,42.019,0,0,1,0-59.357l51.488-51.488a42.016,42.016,0,0,1,65.379,7.588,40.285,40.285,0,0,1,2.08,3.767,41.616,41.616,0,0,1,4.093,15.486Q700.373,213.319,700.376,214.744Z" transform="translate(-378.941 -172.75)" fill="#3f3d56" />
    <path id="Path_48" data-name="Path 48" d="M231.082,679.7c-1.917,7.088-8.485,11.477-8.485,11.477s-3.459-7.1-1.541-14.189,8.485-11.477,8.485-11.477S233,672.615,231.082,679.7Z" transform="translate(-178.633 -459.251)" fill="#6c63ff" />
    <path id="Path_49" data-name="Path 49" d="M203.336,679.7c1.917,7.088,8.485,11.477,8.485,11.477s3.459-7.1,1.541-14.189-8.485-11.477-8.485-11.477S201.418,672.615,203.336,679.7Z" transform="translate(-168.329 -459.251)" fill="#6c63ff" />
    <path id="Path_50" data-name="Path 50" d="M192.6,688.062c5.261,5.122,5.9,12.995,5.9,12.995s-7.887-.431-13.149-5.552-5.9-12.995-5.9-12.995S187.343,682.941,192.6,688.062Z" transform="translate(-154.781 -469.134)" fill="#3f3d56" />
    <path id="Path_51" data-name="Path 51" d="M230.882,688.062c-5.261,5.122-5.9,12.995-5.9,12.995s7.888-.431,13.149-5.552,5.9-12.995,5.9-12.995S236.143,682.941,230.882,688.062Z" transform="translate(-181.25 -469.134)" fill="#3f3d56" />
    <path id="Path_52" data-name="Path 52" d="M780.241,259.608a8.468,8.468,0,0,1-.167,1.672,8.387,8.387,0,1,1,.167-1.672Z" transform="translate(-494.382 -218.359)" fill="#3f3d56" />
    <path id="Path_53" data-name="Path 53" d="M485.241,562.608a8.474,8.474,0,0,1-.167,1.672,8.388,8.388,0,1,1,.167-1.672Z" transform="translate(-322.85 -394.543)" fill="#3f3d56" />
    <rect id="Rectangle_25" data-name="Rectangle 25" width="96.682" height="0.837" transform="translate(0 231.264)" fill="#3f3d56" />
    <path id="Path_54" data-name="Path 54" d="M693.947,220.25h17.842c-.473.41-.929.841-1.377,1.289l-2.478,2.478H690.18Z" transform="translate(-451.749 -200.346)" fill="#6c63ff" />
    <path id="Path_55" data-name="Path 55" d="M852.987,224.017H838.221a29.394,29.394,0,0,0-2.214-2.478c-.448-.448-.9-.879-1.377-1.289h16.277a40.272,40.272,0,0,1,2.08,3.767Z" transform="translate(-535.742 -200.346)" fill="#6c63ff" />
    <path id="Path_56" data-name="Path 56" d="M527.447,93.5H545.2l-3.767,3.767H523.68Z" transform="translate(-304.502 -54.343)" fill="#6c63ff" />
    <path id="Path_57" data-name="Path 57" d="M779.978,266.25a8.441,8.441,0,0,1,.1,3.767H763.667a8.447,8.447,0,0,1,.1-3.767Z" transform="translate(-494.382 -227.093)" fill="#6c63ff" />
    <path id="Path_58" data-name="Path 58" d="M870.87,269.088q0,.465-.013.929H858.3c.013-.31.017-.619.017-.929q0-1.431-.134-2.838h12.594Q870.868,267.663,870.87,269.088Z" transform="translate(-549.435 -227.093)" fill="#6c63ff" />
    <path id="Path_59" data-name="Path 59" d="M480.447,140.5H498.2l-3.767,3.767H476.68Z" transform="translate(-277.173 -81.672)" fill="#6c63ff" />
    <path id="Path_60" data-name="Path 60" d="M855.864,313.25a40.515,40.515,0,0,1-1.883,3.767H838.39a29.059,29.059,0,0,0,3.135-3.767Z" transform="translate(-537.928 -254.422)" fill="#6c63ff" />
    <path id="Path_61" data-name="Path 61" d="M420.409,523.25a29.191,29.191,0,0,0-1.913,3.767H405.22q.534-1.915,1.251-3.767Z" transform="translate(-286.055 -376.53)" fill="#6c63ff" />
    <path id="Path_62" data-name="Path 62" d="M529.421,350.5l-3.767,3.767H507.9l3.767-3.767Z" transform="translate(-295.326 -203.78)" fill="#6c63ff" />
    <path id="Path_63" data-name="Path 63" d="M415.388,573.017H402.51q-.358-1.865-.54-3.767h12.64a28.643,28.643,0,0,0,.779,3.767Z" transform="translate(-284.165 -403.277)" fill="#6c63ff" />
    <path id="Path_64" data-name="Path 64" d="M485.241,571.343a8.471,8.471,0,0,1-.167,1.672l-16.407,0a8.444,8.444,0,0,1,.1-3.767h16.214A8.433,8.433,0,0,1,485.241,571.343Z" transform="translate(-322.85 -403.277)" fill="#6c63ff" />
    <path id="Path_65" data-name="Path 65" d="M483.421,396.5l-3.767,3.767H461.9l3.767-3.767Z" transform="translate(-268.579 -230.527)" fill="#6c63ff" />
    <path id="Path_66" data-name="Path 66" d="M443.308,620.017H422.026a40.546,40.546,0,0,1-2.926-3.767h17.26A29.121,29.121,0,0,0,443.308,620.017Z" transform="translate(-294.125 -430.606)" fill="#6c63ff" />
    <path id="Path_67" data-name="Path 67" d="M551.816,616.25l-3.767,3.767H526.62a29.12,29.12,0,0,0,6.948-3.767Z" transform="translate(-356.645 -430.606)" fill="#6c63ff" />
    <path id="Path_68" data-name="Path 68" d="M401.79,334.594c-3.2-5.407-9.531-5.659-9.531-5.659s-6.169-.789-10.126,7.446c-3.689,7.675-8.779,15.086-.82,16.883l1.438-4.475.89,4.808a31.155,31.155,0,0,0,3.406.058c8.524-.275,16.642.08,16.381-2.978C403.081,346.611,404.869,339.8,401.79,334.594Z" transform="translate(-269.703 -263.531)" fill="#2f2e41" />
    <path id="Path_69" data-name="Path 69" d="M260.5,453.837l.419,10.882h7.534L268.034,453Z" transform="translate(-151.472 -263.38)" fill="#fbbebe" />
    <path id="Path_70" data-name="Path 70" d="M393.917,442.006l-.762,2.532-9.869,32.784-1.088,3.608.837,38.505-10.463,1.256s-.306-4.043-.753-10.011c-.9-11.819-2.373-31.2-3.227-41.749-.314-3.9-.54-6.592-.624-7.253-.419-3.348,5.022-20.09,5.022-20.09l10.882-.837Z" transform="translate(-264.381 -328.559)" fill="#2f2e41" />
    <path id="Path_71" data-name="Path 71" d="M364.817,648.29s-2.93-3.348-3.348-.837-5.441,12.137-5.441,12.137-14.649,9.626-2.093,10.463c0,0,6.278-.837,8.371-4.185,0,0,3.348-2.093,4.185-2.093s5.859-1.674,5.022-4.185-.419-11.719-.419-11.719Z" transform="translate(-253.278 -448.206)" fill="#2f2e41" />
    <path id="Path_72" data-name="Path 72" d="M265.5,425.185l3.767,7.115,5.859-2.93L271.359,421Z" transform="translate(-154.379 -244.773)" fill="#fbbebe" />
    <path id="Path_73" data-name="Path 73" d="M373.476,509.977a56.476,56.476,0,0,1-3.976-17.369c6.06-6.772,13.393-14.23,13.393-14.23l8.789-.419,2.72-.209c.636,6.362-4.746,14.557-10.212,21.086A116.84,116.84,0,0,1,373.476,509.977Z" transform="translate(-265.285 -350.073)" opacity="0.2" />
    <path id="Path_74" data-name="Path 74" d="M372.515,458.4s-26.786,23.438-23.019,33.064,14.23,21.345,14.23,21.345l8.084-4.825-7.665-17.776s3.214-2.85,7.125-7.072c6.366-6.871,14.579-17.378,13.8-25.155l-.419-14.23-7.115.837Z" transform="translate(-253.442 -330.303)" fill="#2f2e41" />
    <path id="Path_75" data-name="Path 75" d="M395.454,613.688s-2.93,0-2.511,2.511,1.256,6.7,1.256,6.7-3.348,19.671,4.6,15.067,5.86-16.741,5.86-16.741,2.93-7.534-.837-8.371-5.022-1.674-5.441-1.256S395.454,613.688,395.454,613.688Z" transform="translate(-278.892 -427.835)" fill="#2f2e41" />
    <circle id="Ellipse_6" data-name="Ellipse 6" cx="7.534" cy="7.534" r="7.534" transform="translate(114.888 68.245)" fill="#fbbebe" />
    <path id="Path_76" data-name="Path 76" d="M403.674,360.75s3.348,8.789,2.093,9.208A18.811,18.811,0,0,0,402,372.469l4.185,3.767,10.882-5.859s-5.022-6.7-4.6-9.626Z" transform="translate(-284.182 -282.042)" fill="#fbbebe" />
    <path id="Path_77" data-name="Path 77" d="M401.042,379.75s-8.758,4.317-11.912,1.531c0,0-5.247-.275-6.085,2.655s.837,5.441-1.256,6.278-3.558,3.139-2.3,6.906,1.046,4.395-.628,5.65-3.348,3.767-3.348,4.6-1.674.837-.837,1.674-.837,0,.837.837,6.278-6.7,9.626-2.93,13.812,10.045,14.649,6.278,3.348-12.975,3.348-12.975,8.789-16.323,6.278-18S401.042,379.75,401.042,379.75Z" transform="translate(-268.157 -293.089)" fill="#cfcce0" />
    <path id="Path_78" data-name="Path 78" d="M419.5,449.6s-4.6-.837-5.859,2.093-8.371,9.626-3.767,10.045,7.952-7.115,7.952-7.115l4.6-.837Z" transform="translate(-287.868 -333.638)" fill="#fbbebe" />
    <path id="Path_79" data-name="Path 79" d="M438.441,385.75l5.474.3s2.479,2.625,2.9,5.136,8.371,21.345,3.348,23.438-15.9,3.348-15.9,3.348L433,412.118l7.115-2.511-5.022-10.463Z" transform="translate(-302.208 -296.578)" fill="#cfcce0" />
    <path id="Path_80" data-name="Path 80" d="M264.256,372.034l6.884,17.211L263,372.034l7.115-7.534Z" transform="translate(-152.925 -211.92)" opacity="0.2" />
    <path id="Path_81" data-name="Path 81" d="M256.143,427.766l2.87,3.655H256.92Z" transform="translate(-148.938 -248.707)" opacity="0.2" />
    <circle id="Ellipse_7" data-name="Ellipse 7" cx="4.577" cy="4.577" r="4.577" transform="translate(118.754 60.855)" fill="#2f2e41" />
    <path id="Path_82" data-name="Path 82" d="M401.747,319.792a4.577,4.577,0,0,1,4.1-4.552,4.577,4.577,0,1,0,0,9.1,4.578,4.578,0,0,1-4.1-4.552Z" transform="translate(-283.475 -255.564)" fill="#2f2e41" />
    <path id="Path_83" data-name="Path 83" d="M289.043,163.938l-6.255-3.276L274.151,162l-1.787,7.892,4.449-.171,1.243-2.9v2.852l2.052-.079,1.191-4.616.745,4.914,7.3-.149Z" transform="translate(-158.37 -93.396)" fill="#2f2e41" />
  </g>
</svg>