<svg xmlns="http://www.w3.org/2000/svg" width="412" height="249.618" viewBox="0 0 412 249.618">
  <g id="Group_5" data-name="Group 5" transform="translate(0 0.005)">
    <circle id="Ellipse_17" data-name="Ellipse 17" cx="21.232" cy="21.232" r="21.232" transform="translate(12.876 11.689)" fill="#ff6584" />
    <ellipse id="Ellipse_18" data-name="Ellipse 18" cx="204.937" cy="8.308" rx="204.937" ry="8.308" transform="translate(0 232.997)" fill="#e6e6e6" />
    <circle id="Ellipse_19" data-name="Ellipse 19" cx="52.157" cy="52.157" r="52.157" transform="translate(0 32.87)" fill="#6c63ff" />
    <path id="Path_151" data-name="Path 151" d="M111.43,332.155H100.747l4.87-164.954Z" transform="translate(-54.246 -90.029)" fill="#3f3d56" />
    <path id="Path_152" data-name="Path 152" d="M111.691,216.424l11.469-15.867-11.625,19.794-1.257-2.2Z" transform="translate(-59.377 -107.989)" fill="#3f3d56" />
    <path id="Path_153" data-name="Path 153" d="M97.239,251.141,85.771,235.274,97.4,255.068l1.257-2.2Z" transform="translate(-46.182 -126.682)" fill="#3f3d56" />
    <path id="Path_154" data-name="Path 154" d="M815.044,332.531H804.361l4.87-164.954Z" transform="translate(-433.096 -90.232)" fill="#3f3d56" />
    <path id="Path_155" data-name="Path 155" d="M815.3,216.8l11.469-15.867-11.625,19.794-1.257-2.2Z" transform="translate(-438.227 -108.192)" fill="#3f3d56" />
    <path id="Path_156" data-name="Path 156" d="M800.853,251.517,789.385,235.65l11.625,19.794,1.257-2.2Z" transform="translate(-425.032 -126.885)" fill="#3f3d56" />
    <circle id="Ellipse_20" data-name="Ellipse 20" cx="97.161" cy="97.161" r="97.161" transform="translate(114.723 47.949)" fill="#3f3d56" />
    <circle id="Ellipse_21" data-name="Ellipse 21" cx="89.118" cy="89.118" r="89.118" transform="translate(122.766 55.992)" fill="#fff" />
    <circle id="Ellipse_22" data-name="Ellipse 22" cx="11.904" cy="11.904" r="11.904" transform="translate(199.659 133.528)" fill="#3f3d56" />
    <rect id="Rectangle_26" data-name="Rectangle 26" width="5.148" height="9.652" transform="translate(208.989 60.497)" fill="#3f3d56" />
    <rect id="Rectangle_27" data-name="Rectangle 27" width="5.148" height="9.652" transform="translate(208.989 220.716)" fill="#3f3d56" />
    <rect id="Rectangle_28" data-name="Rectangle 28" width="5.148" height="9.652" transform="translate(136.279 142.858) rotate(90)" fill="#3f3d56" />
    <rect id="Rectangle_29" data-name="Rectangle 29" width="5.148" height="9.652" transform="translate(296.498 142.858) rotate(90)" fill="#3f3d56" />
    <path id="Path_157" data-name="Path 157" d="M450.924,314.552l4.4-10.059,55.122,30.529Z" transform="translate(-242.793 -163.952)" fill="#3f3d56" />
    <rect id="Rectangle_30" data-name="Rectangle 30" width="25.095" height="28.955" transform="translate(199.337 24.463)" fill="#3f3d56" />
    <ellipse id="Ellipse_23" data-name="Ellipse 23" cx="28.955" cy="8.043" rx="28.955" ry="8.043" transform="translate(182.929 16.42)" fill="#3f3d56" />
    <path id="Path_158" data-name="Path 158" d="M719.3,528.656l-1.609,2.252s-7.4,8.687-7.721,4.5,5.469-7.078,5.469-7.078l3.217-1.93Z" transform="translate(-453.204 -366.333)" fill="#ffb8b8" />
    <path id="Path_159" data-name="Path 159" d="M826.722,547.3l1.347,2.418s4.684,10.405.766,8.906-4.056-7.972-4.056-7.972l-.368-3.734Z" transform="translate(-514.831 -377.378)" fill="#ffb8b8" />
    <circle id="Ellipse_24" data-name="Ellipse 24" cx="9.796" cy="9.796" r="9.796" transform="translate(294.853 107.458)" fill="#2f2e41" />
    <path id="Path_160" data-name="Path 160" d="M811.751,607.389l1.287,8.365v2.574h7.4V615.11s.322-5.791-.965-7.4S811.751,607.389,811.751,607.389Z" transform="translate(-508.014 -409.676)" fill="#ffb8b8" />
    <path id="Path_161" data-name="Path 161" d="M783.173,607.389l1.287,8.365v2.574h7.4V615.11s.322-5.791-.965-7.4S783.173,607.389,783.173,607.389Z" transform="translate(-492.627 -409.676)" fill="#ffb8b8" />
    <path id="Path_162" data-name="Path 162" d="M792.116,462.384s-2.846,1.5-.9,4.912,13.35,38.715,13.35,38.715l6.58-1.868-5.8-22.326-3.323-14.032Z" transform="translate(-496.59 -331.863)" fill="#6c63ff" />
    <circle id="Ellipse_25" data-name="Ellipse 25" cx="7.4" cy="7.4" r="7.4" transform="translate(296.177 112.616)" fill="#ffb8b8" />
    <path id="Path_163" data-name="Path 163" d="M809.715,442.063l-.965,15.121-6.756-4.826s2.252-9.008,1.609-9.652Z" transform="translate(-502.76 -320.921)" fill="#ffb8b8" />
    <path id="Path_164" data-name="Path 164" d="M800.587,465.117l-7.279-5.39s-3.338-1.367-4.3.242-5.791,25.416-3.217,29.921c0,0,13.834,2.9,16.73,1.287l1.287-8.365s1.609-5.148-.965-8.365Z" transform="translate(-493.632 -330.141)" fill="#6c63ff" />
    <path id="Path_165" data-name="Path 165" d="M758.029,460.91s-2.574-1.93-4.826,1.287-29.277,28.634-29.277,28.634l4.5,5.148,17.695-14.8,11.26-9.008Z" transform="translate(-460.726 -330.76)" fill="#6c63ff" />
    <path id="Path_166" data-name="Path 166" d="M799.874,526.243s-15.925-3.056-17.534-.8l-.322,3.539s-3.539,6.756-1.609,17.695.643,17.695.643,17.695,8.687-.965,15.121,0,7.4,0,7.4,0Z" transform="translate(-490.828 -365.368)" fill="#2f2e41" />
    <path id="Path_167" data-name="Path 167" d="M821.081,628.868l-9.33.322,3.217,24.13s-2.574,10.3.322,10.939a32.634,32.634,0,0,0,6.113.643s2.9,2.9,6.113,2.574a18.018,18.018,0,0,0,6.113-1.93,2,2,0,0,0-1.609-2.574c-2.252-.643-8.365-2.574-9.652-9.33Z" transform="translate(-508.014 -421.504)" fill="#2f2e41" />
    <path id="Path_168" data-name="Path 168" d="M792.5,628.868l-9.33.322,3.217,24.13s-2.574,10.3.322,10.939a32.633,32.633,0,0,0,6.113.643s2.9,2.9,6.113,2.574a18.018,18.018,0,0,0,6.113-1.93,2,2,0,0,0-1.609-2.574c-2.252-.643-8.365-2.574-9.652-9.33Z" transform="translate(-492.627 -421.504)" fill="#2f2e41" />
    <circle id="Ellipse_26" data-name="Ellipse 26" cx="4.054" cy="4.054" r="4.054" transform="translate(304.022 102.89)" fill="#2f2e41" />
    <path id="Path_169" data-name="Path 169" d="M828.625,401.817a4.054,4.054,0,0,0-3.631-4.032,4.107,4.107,0,0,1,.422-.022,4.054,4.054,0,0,1,0,8.107,4.1,4.1,0,0,1-.422-.022A4.054,4.054,0,0,0,828.625,401.817Z" transform="translate(-515.144 -297.069)" fill="#2f2e41" />
    <ellipse id="Ellipse_27" data-name="Ellipse 27" cx="6.756" cy="4.054" rx="6.756" ry="4.054" transform="translate(296.753 111.124)" fill="#2f2e41" />
    <path id="Path_170" data-name="Path 170" d="M950.483,199.052a20.621,20.621,0,0,0-40.459-4.348c-.25-.009-.5-.019-.751-.019a20.625,20.625,0,0,0-19.785,14.808,14.574,14.574,0,0,0-17.294,4.305h64.325A13.948,13.948,0,0,0,950.5,199.356Q950.492,199.2,950.483,199.052Z" transform="translate(-540.558 -179.599)" fill="#e6e6e6" />
    <circle id="Ellipse_28" data-name="Ellipse 28" cx="5.539" cy="5.539" r="5.539" transform="translate(350.612 51.775)" fill="#e6e6e6" />
    <circle id="Ellipse_29" data-name="Ellipse 29" cx="4.612" cy="4.612" r="4.612" transform="translate(368.263 39.643)" fill="#e6e6e6" />
    <circle id="Ellipse_30" data-name="Ellipse 30" cx="5.539" cy="5.539" r="5.539" transform="translate(389.845 63.776)" fill="#e6e6e6" />
    <circle id="Ellipse_31" data-name="Ellipse 31" cx="5.539" cy="5.539" r="5.539" transform="translate(347.842 89.162)" fill="#e6e6e6" />
    <circle id="Ellipse_32" data-name="Ellipse 32" cx="5.539" cy="5.539" r="5.539" transform="translate(389.845 121.01)" fill="#e6e6e6" />
    <path id="Path_171" data-name="Path 171" d="M964.365,676.86c0-.06.009-.119.009-.179a8.745,8.745,0,0,0-17.456-.457c-.028,0-.055,0-.084,0a8.348,8.348,0,0,0,12.9,10.478,5.534,5.534,0,1,0,4.627-9.837Z" transform="translate(-577.761 -443.511)" fill="#e6e6e6" />
    <circle id="Ellipse_33" data-name="Ellipse 33" cx="2.308" cy="2.308" r="2.308" transform="translate(398.153 102.085)" fill="#e6e6e6" />
    <circle id="Ellipse_34" data-name="Ellipse 34" cx="2.308" cy="2.308" r="2.308" transform="translate(383.383 46.698)" fill="#e6e6e6" />
    <circle id="Ellipse_35" data-name="Ellipse 35" cx="2.308" cy="2.308" r="2.308" transform="translate(375.536 103.932)" fill="#e6e6e6" />
    <circle id="Ellipse_36" data-name="Ellipse 36" cx="2.308" cy="2.308" r="2.308" transform="translate(377.383 101.624)" fill="#e6e6e6" />
    <circle id="Ellipse_37" data-name="Ellipse 37" cx="2.308" cy="2.308" r="2.308" transform="translate(378.767 99.316)" fill="#e6e6e6" />
    <circle id="Ellipse_38" data-name="Ellipse 38" cx="2.308" cy="2.308" r="2.308" transform="translate(373.228 118.702)" fill="#e6e6e6" />
    <circle id="Ellipse_39" data-name="Ellipse 39" cx="2.308" cy="2.308" r="2.308" transform="translate(407.384 144.55)" fill="#e6e6e6" />
    <circle id="Ellipse_40" data-name="Ellipse 40" cx="2.308" cy="2.308" r="2.308" transform="translate(357.997 145.934)" fill="#e6e6e6" />
    <circle id="Ellipse_41" data-name="Ellipse 41" cx="2.308" cy="2.308" r="2.308" transform="translate(360.766 74.853)" fill="#e6e6e6" />
    <circle id="Ellipse_42" data-name="Ellipse 42" cx="2.308" cy="2.308" r="2.308" transform="translate(371.382 116.394)" fill="#e6e6e6" />
    <circle id="Ellipse_43" data-name="Ellipse 43" cx="2.308" cy="2.308" r="2.308" transform="translate(369.074 112.701)" fill="#e6e6e6" />
  </g>
</svg>